<svg xmlns="http://www.w3.org/2000/svg" viewBox="0 0 16 16" id="logout"><g fill="#231f20" data-name="UI, Web, All Mail, Drive, Archive"><path d="M14 7.69a.5.5 0 0 0 0-.38.36.36 0 0 0-.11-.16L12.1 5.4a.49.49 0 0 0-.7.7l.89.9H6.5a.5.5 0 0 0 0 1h5.79l-.89.9a.48.48 0 0 0 0 .7.48.48 0 0 0 .7 0l1.75-1.75a.36.36 0 0 0 .15-.16Z"></path><path d="M9.5 10a.5.5 0 0 0-.5.5v1A1.5 1.5 0 0 1 7.5 13h-4A1.5 1.5 0 0 1 2 11.5v-8A1.5 1.5 0 0 1 3.5 2h4A1.5 1.5 0 0 1 9 3.5v1a.5.5 0 0 0 1 0v-1A2.5 2.5 0 0 0 7.5 1h-4A2.5 2.5 0 0 0 1 3.5v8A2.5 2.5 0 0 0 3.5 14h4a2.5 2.5 0 0 0 2.5-2.5v-1a.5.5 0 0 0-.5-.5Z"></path></g></svg>